<?xml version="1.0" encoding="UTF-8"?><svg id="Layer_1" xmlns="http://www.w3.org/2000/svg" viewBox="0 0 218 59"><defs><style>.cls-1{fill:#0060af;stroke-width:0px;}</style></defs><g id="BCA"><path id="path20" class="cls-1" d="M77.5,37.3v-4.5c0-4.4-3.2-7.6-5.2-7.3-1.4.1-2.6.7-3.2,2.4-.6,1.5,0,3.6,1.9,4.1,2.1.5,3.3.9,4.2,1.6,1.1.7,2,2.2,2,3.8"/><path id="path22" class="cls-1" d="M78.3,44c-3.7,0-7.5-.9-11.3-2.7h0v-.1c-1.7-3.6-2.6-7.5-2.6-11.3s.9-7.6,2.6-11.2h0v-.1c3.5-1.7,7.3-2.5,11.2-2.5s7.6.9,11.3,2.7h0v.1c1.7,3.7,2.6,7.6,2.6,11.3s-.9,7.5-2.6,11.2h0v.1c-3.4,1.6-7.3,2.5-11.2,2.5M67.4,40.8c3.7,1.7,7.3,2.6,10.9,2.6s7.5-.8,10.9-2.4c1.7-3.5,2.5-7.2,2.5-10.8s-.9-7.5-2.5-11c-3.6-1.7-7.4-2.6-11-2.6s-7.5.8-10.9,2.4c-1.6,3.5-2.5,7.1-2.5,10.8s.9,7.5,2.5,11"/><path id="path24" class="cls-1" d="M76.6,37.3c0-1.4-.8-2.7-1.8-3.4-.9-.6-2.2-1-4.2-1.5-.6-.2-1.3-.5-1.5-1-.5.5-.6,1.7-.5,2.4.1.8,1.1,2.2,2.5,2.2.9,0,2-.2,2.5-.3.9-.2,2.4.4,2.6,1.5"/><path id="path26" class="cls-1" d="M78.2,18.5c-2.4,0-4.5,1.6-4.5,4.4,0,2.3,1.9,3.6,2.5,4.5,1,1.3,1.6,2.9,1.6,5.4v4.5h.5v-4.6c0-2.4.6-4,1.6-5.3.7-.9,2.5-2.1,2.5-4.5,0-2.8-2.1-4.4-4.5-4.4"/><path id="path28" class="cls-1" d="M78.8,37.3v-4.5c0-4.4,3.2-7.6,5.2-7.3,1.4.1,2.6.7,3.2,2.4.6,1.5,0,3.6-1.9,4.1-2.1.5-3.3.9-4.2,1.6-1.1.7-1.9,2.2-1.9,3.8"/><path id="path30" class="cls-1" d="M79.7,37.3c0-1.4.8-2.7,1.8-3.4.9-.6,2.2-1,4.2-1.5.6-.2,1.3-.5,1.5-1,.5.5.6,1.7.5,2.4-.1.8-1.1,2.2-2.5,2.2-.9,0-2-.2-2.5-.3-.9-.2-2.4.4-2.6,1.5"/><path id="path32" class="cls-1" d="M80.5,41.9l-.3-2.3h.7c.2-.1.4-.1.5,0,0,.1.1.2.1.4s0,.4-.2.5h0c.2,0,.4.2.4.5v.3c0,.3-.2.4-.5.4h-.7v.2ZM81,41.5h.2c.1,0,0-.2,0-.3,0-.2-.1-.3-.4-.3h-.2l.1.7h0l.3-.1ZM80.8,40.4s.2,0,.3-.1v-.3c0-.2,0-.3-.3-.2h-.2v.6"/><path id="path34" class="cls-1" d="M83.7,40.5v.1c0,.4,0,.8-.5.8-.7.1-.8-.3-.9-.9v-.3c-.2-.6-.2-1,.5-1.1.4,0,.6,0,.7.5v.2h-.4s-.1-.3-.3-.3c-.3,0-.2.5-.2.6v.6c.2.2.2.5.5.4.2,0,.1-.4.1-.6"/><path id="path36" class="cls-1" d="M84.4,41.2v-2.3c-.1,0,.4-.2.4-.2l1.2,2h-.4c0,.1-.3-.4-.3-.4h-.5v.7h-.4v.2ZM84.7,40.1h.3c0-.1-.5-1-.5-1"/><path id="path38" class="cls-1" d="M70.7,39.4c.2-.6.3-1,1-.8.4,0,.6.3.6.7v.3h-.4c0-.3,0-.5-.2-.6-.3,0-.4.3-.4.5l-.2.6c0,.2-.1.5.2.6.2,0,.4-.2.5-.5h-.3v-.4l.7.2-.3,1.2h-.3v-.3h0c-.1.2-.3.2-.5.2-.7-.2-.6-.6-.4-1.2"/><path id="path40" class="cls-1" d="M73.3,40.4l-.2,1h-.5l.5-2.3.8.2c.5,0,.6.3.5.7,0,.2-.2.5-.4.5h0c.2,0,.3.2.2.4,0,0-.1.6,0,.7h-.5v-1h-.4v-.2ZM73.3,40.1h.3c.2.1.3,0,.3-.2s0-.3-.2-.3h-.3"/><path id="path42" class="cls-1" d="M76.2,39.5h.5l-.2,1.6c0,.5-.3.7-.8.7-.6,0-.7-.3-.7-.8l.2-1.6h.5l-.2,1.6c0,.2,0,.4.2.4.3,0,.3-.2.4-.4"/><path id="path44" class="cls-1" d="M77.1,41.9v-2.3h1c.4,0,.5.4.5.7,0,.2,0,.4-.2.5-.1.1-.3.1-.5.1h-.3v.9h-.4l-.1.1ZM77.7,40.7h.2c.2,0,.3,0,.3-.3s0-.3-.3-.3h-.2"/><path id="path46" class="cls-1" d="M138.4,20.7l-3.5,6.3c-1.3-1.1-2.9-1.8-4.9-1.8-4.8,0-6.8,3.6-6.8,6.1s1.2,4.6,5.5,4.6,4.3-1.2,5.1-1.8l-3.4,7.3c-1.6.3-2.2.5-3.5.6-7.7.2-10.7-4.5-10.7-9.3,0-6.4,5.7-14.1,15-14.1s1.3.2,1.9.4l.6-.8"/><path id="path48" class="cls-1" d="M152.7,18.4l1,22.8h-7.3v-3.9h-5l-1.6,3.9h-7.9l8.3-16.3h-1.9l3.5-6.5s10.9,0,10.9,0ZM146.3,25.4l-2.8,6.6h2.9"/><path id="path50" class="cls-1" d="M111.6,18.4c3.6,0,5.6,2,5.6,4.8s-2.1,4.9-4.5,6.1c2.4.9,2.6,3.1,2.6,4.6,0,3.7-3.8,7.2-8.6,7.2h-10.7l4.2-16h-1.7l3.5-6.7h9.6M108,27.7c.7,0,2.1-.2,2.4-1.6.4-1.6-.9-1.6-1.5-1.6h-2.1l-.7,3.2s1.9,0,1.9,0ZM105.1,31.7l-1,3.7h2.5c1,0,2.3-.5,2.6-1.7.3-1.2-.6-2-1.6-2"/></g></svg>