<?xml version="1.0" encoding="UTF-8"?><svg id="Layer_1" xmlns="http://www.w3.org/2000/svg" viewBox="0 0 218 59"><defs><style>.cls-1{fill:#f15a22;}.cls-1,.cls-2,.cls-3{stroke-width:0px;}.cls-2{fill:#006885;}.cls-3{fill:#fff;}</style></defs><g id="BNI"><path id="path176" class="cls-3" d="M86.4,43.4h-27.4v-27.4h27.4v27.4Z"/><path id="path188" class="cls-1" d="M70,34.5l2.9-2.4c-.5-.6-1-1.2-1.4-1.9-3.4-4.9-5.4-9.9-3.9-14.3h-8.6v4.8l11,13.8Z"/><path id="path192" class="cls-1" d="M74.6,27.4c.2-1.6.7-4.5,3.5-6.7,2.5-1.9,5.6-2.2,8.3-1.1v-3.7h-15.2c-1,4.5,1.6,9.4,3.4,11.4"/><path id="path196" class="cls-1" d="M78.3,22.9h0c-2.9,2.3-2.2,6,.5,9.3,2.1,2.5,4.8,4.3,7.6,3v-10.8c-2.5-2.6-5.5-3.5-8.1-1.4"/><path id="path200" class="cls-1" d="M58.9,26.4v17.1h0l8.3-6.7-8.3-10.3v-.1Z"/><path id="path212" class="cls-1" d="M74,33.5c-.8.7-1.8,1.5-2.9,2.4l1.1,1.3c1.6,2,3.8,5.3,6.7,4.4h.1c0,.1-2,1.8-2,1.8h9.4v-6.5c-4.9,2.6-9,.2-12.3-3.4"/><path id="path216" class="cls-1" d="M69.5,39.5l-1.1-1.4c-2.3,1.8-4.7,3.8-6.6,5.3h10.6c-.7-1.5-1.9-2.9-2.8-3.9"/><path id="path220" class="cls-2" d="M109.2,27.5c2.5-.4,4.2-2.6,4.2-5.4s-3.2-6.1-8.7-6.1h-10.9c2.2,1.3,2.2,3.3,2.2,5.2v17c0,1.9,0,3.9-2.2,5.1h0c0,.1,5.2.1,5.2.1,5.1,0,9.1,0,12-1.3,3.1-1.5,5-4.1,5-7.3s-3-6.6-6.8-7.4M100.3,18.5h3.4c2.6,0,5.2,1.3,5.2,4.2s-2.3,4.3-5.6,4.3h-3v-8.5ZM103.6,40.6h-3.3v-11h3.6c4.2,0,7.6,1.5,7.6,5.6s-3.6,5.4-7.8,5.4"/><path id="path224" class="cls-2" d="M124.4,38.2c0,2.3,0,4,2.2,5.3h0c0,.1-7.4.1-7.4.1h0c2.2-1.4,2.2-3.1,2.2-5.4v-16.7c0-2.3,0-4.2-2.2-5.4h0c0-.1,6.1-.1,6.1-.1h0c.2.5.4.8.6,1.1.2.3.6.8.6.8l14.1,18.9v-15.5c0-2.3,0-4-2.2-5.2h0c0-.1,7.3-.1,7.3-.1h0c-2.2,1.4-2.2,3-2.2,5.4v23.6c-1.3-.5-5.1-3.6-7.7-7.2-4.8-6.4-11.4-15.3-11.4-15.3v15.8-.1Z"/><path id="path228" class="cls-2" d="M152.6,21c0-1.9,0-3.6-2.2-4.8h0c0-.1,8.6-.1,8.6-.1h0c-2.1,1.3-2.2,3.1-2.2,5v17.5c0,1.9,0,3.8,2.2,5h0c0,.1-8.6.1-8.6.1h0c2.2-1.4,2.2-3.2,2.2-5.1v-17.6Z"/></g></svg>