<?xml version="1.0" encoding="UTF-8"?><svg id="Layer_1" xmlns="http://www.w3.org/2000/svg" viewBox="0 0 218 59"><defs><style>.cls-1{fill:#00529c;stroke-width:0px;}</style></defs><g id="BRI"><path id="B" class="cls-1" d="M81.7,23h6.4c2.6,0,4.5,1.1,4.5,3.5s-.9,2.7-2.5,3.3h0c1.9.4,2.8,1.4,2.8,3.1,0,3.3-2.9,4-5.4,4h-5.9v-13.9h.1ZM85.4,28.5h1c1.2,0,2.5-.3,2.5-1.5s-1.2-1.4-2.4-1.4h-1.1v2.9ZM85.4,34.3h1.1c1.4,0,2.8-.2,2.8-1.6s-1.5-1.7-2.7-1.7h-1.1v3.3h-.1Z"/><path id="A" class="cls-1" d="M97.9,23h4.6l5.4,13.9h-4.1l-1-3h-5.2l-1.1,3h-3.8l5.3-13.9h-.1ZM100.2,25.9h0l-1.8,5.5h3.5l-1.7-5.5Z"/><path id="N" class="cls-1" d="M108.3,23h4.7l4.7,9.5h0v-9.5h3.3v13.9h-4.6l-4.9-9.5h0v9.5c.1,0-3.3,0-3.3,0v-13.9h.1Z"/><path id="K" class="cls-1" d="M122.4,23h3.7v5.7h0l4.2-5.7h4.5l-5.2,6.5,5.6,7.4h-4.7l-4.3-6.3h0v6.3h-3.7v-13.9h-.1Z"/><path id="B-2" class="cls-1" d="M139.8,23h6.4c2.6,0,4.5,1.1,4.5,3.5s-.9,2.7-2.5,3.3h0c1.9.4,2.8,1.4,2.8,3.1,0,3.3-2.9,4-5.4,4h-5.9v-13.9h.1ZM143.5,28.5h1c1.2,0,2.5-.3,2.5-1.5s-1.2-1.4-2.4-1.4h-1.1v2.9ZM143.5,34.3h1.1c1.4,0,2.8-.2,2.8-1.6s-1.5-1.7-2.7-1.7h-1.1v3.3h-.1Z"/><path id="R" class="cls-1" d="M152,23h6.6c2.5,0,4.5,1.1,4.5,3.5s-.9,3.1-2.7,3.5h0c1.2.4,1.3,1.4,2,3.1l1.4,3.8h-3.9l-.8-2.5c-.8-2.4-1.2-3-2.6-3h-.8v5.5h-3.7s0-13.9,0-13.9ZM155.7,28.8h1c1.2,0,2.7,0,2.7-1.6s-1.3-1.5-2.7-1.5h-1v3.2-.1Z"/><path id="I" class="cls-1" d="M164.8,23h3.7v13.9h-3.7v-13.9Z"/><path id="BRI-Logo" class="cls-1" d="M73.2,16h-19.4c-2.4,0-4.3,2-4.3,4.4h0v19.2c0,2.4,1.9,4.3,4.2,4.4h19.5c2.4,0,4.3-2,4.3-4.4v-19.2c0-2.4-1.9-4.4-4.3-4.4M56.1,41.8h-1.1c-1.3,0-2.3-1-2.3-2.3v-19c0-1.3,1-2.3,2.3-2.3h2.2c2,0,3.5,1.7,3.5,3.7s-.4,1.9-1,2.5l-5.5,5.6,5.2,5.2c.7.7,1.1,1.6,1.1,2.6,0,2.1-1.9,3.9-4.3,3.9M72,41.7h-9.6s1.1-2.4,1.1-3.9-.6-3.4-1.6-4.5l-3.3-3.4,3.4-3.5c1-.9,1.7-2.6,1.7-4.5s-.4-2.8-1.1-3.8h2.3c2,0,3.5,1.7,3.5,3.7s-.4,1.9-1,2.5l-5.4,5.5,11.2,11.4c-.4.2-.8.3-1.3.3M74.3,38.2l-8-8.2,3.8-3.9c.8-1,1.3-2.4,1.3-4.1s-.4-2.9-1.1-3.8h1.7c1.3,0,2.3,1.1,2.3,2.4,0,0,0,17.6,0,17.6Z"/></g></svg>