<?xml version="1.0" encoding="UTF-8"?><svg id="Layer_1" xmlns="http://www.w3.org/2000/svg" viewBox="0 0 218 59"><defs><style>.cls-1{fill:#ed3024;}.cls-1,.cls-2,.cls-3{stroke-width:0px;}.cls-2{fill:#790008;}.cls-3{fill:#fff;}</style></defs><g id="CIMB-Niaga"><g id="_790008ff"><path class="cls-2" d="M17.2,16h28v28h-28v-28M21,21.3c2.2,2.9,4.4,5.8,6.6,8.7-2.2,2.9-4.4,5.8-6.6,8.7h14.9c2.2-2.9,4.4-5.9,6.6-8.7h0c-2.2-2.9-4.4-5.8-6.6-8.7h-14.9Z"/><path class="cls-2" d="M54.7,24.2c1.7-2.1,4.2-3.4,6.9-3.6,2.5-.2,5.1.7,7,2.4-.9.9-1.7,1.7-2.6,2.6-1.5-1.2-3.5-1.6-5.3-1.1-2,.5-3.7,2.3-4.1,4.3-.6,2.2.2,4.7,2.1,6.1,2.1,1.7,5.3,1.6,7.4-.1.9.9,1.7,1.7,2.6,2.6-1.7,1.5-3.9,2.4-6.1,2.4-2.8,0-5.7-1.2-7.5-3.3-1.3-1.5-2.1-3.4-2.3-5.3-.3-2.5.5-5,2.1-6.9l-.2-.1Z"/><path class="cls-2" d="M72,21.1h3.7v18.1h-3.7v-18.1Z"/><path class="cls-2" d="M80.1,21.1h3.6c2.1,3.8,4.2,7.7,6.4,11.5,2.1-3.8,4.2-7.7,6.3-11.5h3.6v18.1h-3.7v-10.7c-2.1,3.6-4.1,7.3-6.3,10.9-2.1-3.6-4.2-7.2-6.2-10.9v10.7h-3.7c0-6,0-12.1,0-18.1Z"/><path class="cls-2" d="M104.2,21.1h7.5c1.2,0,2.3.3,3.3.9,2.4,1.5,2.9,5.2.9,7.2-.3.3-.6.5-.9.7,1.1.6,2,1.7,2.2,3,.3,1.7,0,3.7-1.4,4.9-1.1,1-2.6,1.4-4,1.4h-7.7v-18.1M107.8,24.4v3.9h3.3c.6,0,1.3-.1,1.8-.6.7-.7.7-1.9,0-2.6-.4-.5-1.2-.7-1.9-.7h-3.3M107.8,31.7v4.2h3.6c.6,0,1.2-.1,1.6-.5.8-.8.9-2.3,0-3.1-.5-.4-1.1-.6-1.7-.6h-3.5Z"/><path class="cls-2" d="M124.9,21.1h1.8c.3.2.4.6.7.8,3.4,4.6,6.7,9.2,10.1,13.8v-14.7h1.9v18h-1.9c-3.6-4.9-7.1-9.8-10.7-14.7v14.7h-1.9v-18,.1Z"/><path class="cls-2" d="M144.1,21.1h1.9v18h-1.9v-18Z"/><path class="cls-2" d="M149,39.3c2.2-6,4.4-12,6.6-18h2.6c2.1,6,4.2,11.9,6.3,17.9h-2.2c-.6-1.6-1.1-3.2-1.7-4.8h-7.5c-.6,1.6-1.1,3.3-1.6,4.9h-2.5M153.9,32.2h5.9c-1-2.9-2-5.8-2.9-8.7-1,2.9-2,5.8-3,8.7Z"/><path class="cls-2" d="M168.8,24.2c1.5-1.5,3.5-2.7,5.7-2.9,2.7-.3,5.3.7,7.5,2.2-.4.5-.9,1.1-1.3,1.6-.7-1-2-1.4-3.1-1.7-2-.6-4.3-.3-6,1-1.5,1.2-2.5,2.9-3,4.8-.2,1.9,0,4,1.1,5.6.4.6,1,1,1.5,1.5,1.1.9,2.6,1.3,4.1,1.3,1.8,0,3.5-.4,5.2-1.1v-5.6h-4.2v-1.7h6v8.6c-1.9,1.1-4.1,1.5-6.3,1.7-2.3,0-4.7-.5-6.5-2-1.7-1.4-2.8-3.6-3.1-5.8-.2-2.7.5-5.5,2.3-7.6l.1.1Z"/><path class="cls-2" d="M185.3,39.2c2.2-6,4.4-12,6.6-18h2.6c2,5.7,4,11.4,6,17.1,0,.3.1.5.2.8h-2.1c-.6-1.6-1.1-3.2-1.7-4.8h-7.5c-.5,1.6-1.1,3.3-1.6,4.9h-2.5M193.2,23.5c-1,2.9-2,5.8-3,8.7h5.9c-1-2.9-2-5.8-2.9-8.7Z"/></g><g id="_ffffffff"><path class="cls-3" d="M21,21.3h14.9c2.2,2.9,4.4,5.8,6.6,8.7h-14.9c-2.2-2.9-4.4-5.8-6.6-8.7Z"/></g><g id="_ed3024ff"><path class="cls-1" d="M27.5,30h14.9c-2.3,2.9-4.4,5.8-6.6,8.7h-14.9c2.2-2.9,4.4-5.8,6.6-8.7Z"/></g></g></svg>