<?xml version="1.0" encoding="UTF-8"?><svg id="Layer_1" xmlns="http://www.w3.org/2000/svg" xmlns:xlink="http://www.w3.org/1999/xlink" viewBox="0 0 218 59"><defs><style>.cls-1{fill:none;}.cls-1,.cls-2,.cls-3{stroke-width:0px;}.cls-2{fill:#ffb700;fill-rule:evenodd;}.cls-3{fill:#003a70;}.cls-4{clip-path:url(#clippath);}</style><clipPath id="clippath"><rect class="cls-1" x="42.7" y="4" width="132.6" height="40"/></clipPath></defs><g id="MANDIRI"><g id="g14"><g class="cls-4"><g id="g16"><g id="g22"><path id="path24-2" class="cls-3" d="M42.8,31.9c0-1.9,0-3.5-.1-5h3.6l.2,2.5h.1c.8-1.3,2.3-2.8,5.1-2.8s3.9,1.2,4.6,3.1h0c.6-.9,1.3-1.6,2.1-2.1.9-.7,2-1,3.4-1,2.8,0,5.6,1.9,5.6,7.2v9.8h-4.1v-9.2c0-2.8-1-4.4-3-4.4s-2.5,1-3,2.2c-.1.4-.2.9-.2,1.4v10h-4.1v-9.7c0-2.3-.9-4-2.9-4-1.6,0-2.6,1.2-3,2.4-.2.4-.2.9-.2,1.4v9.9h-4.1s0-11.7,0-11.7Z"/></g><g id="g26"><path id="path28-2" class="cls-3" d="M79.4,35.5c-3,0-5.8.6-5.8,3.1s1.1,2.4,2.4,2.4,2.9-1.1,3.3-2.3c.1-.3.1-.7.1-.9v-2.3ZM83.5,39.6c0,1.5,0,3,.2,4h-3.8l-.3-1.9h-.1c-1,1.3-2.8,2.2-4.9,2.2-3.4,0-5.2-2.4-5.2-5,0-4.2,3.7-6.3,9.9-6.3v-.3c0-1.1-.4-2.9-3.4-2.9s-3.4.5-4.5,1.2l-.8-2.7c1.2-.8,3.4-1.5,6-1.5,5.4,0,6.9,3.4,6.9,7v6.2Z"/></g><g id="g30"><path id="path32-2" class="cls-3" d="M86.4,31.9c0-1.9,0-3.5-.1-5h3.7l.2,2.5h.1c.7-1.3,2.5-2.9,5.3-2.9s5.9,1.9,5.9,7.2v9.9h-4.2v-9.4c0-2.4-.9-4.2-3.2-4.2-1.7,0-2.8,1.2-3.3,2.5-.1.4-.2.9-.2,1.4v9.8h-4.2v-11.8Z"/></g><g id="g34"><path id="path36-2" class="cls-3" d="M115.6,33.9c0-.3,0-.8-.1-1.1-.4-1.6-1.7-3-3.6-3s-4.2,2.4-4.2,5.5,1.5,5.3,4.2,5.3,3.2-1.2,3.6-3c.1-.4.1-.8.1-1.2v-2.5ZM119.8,20.2v18.7c0,1.7,0,3.6.1,4.7h-3.8l-.2-2.6h0c-1,1.8-3,3-5.5,3-4,0-7.1-3.4-7.1-8.5,0-5.6,3.5-8.9,7.5-8.9s3.9,1,4.7,2.2h0v-8.5h4.2l.1-.1Z"/></g><path id="path38-2" class="cls-3" d="M122.8,26.9h4.3v16.7h-4.3s0-16.7,0-16.7Z"/><g id="g40"><path id="path42-2" class="cls-3" d="M130,32.3c0-2.3,0-3.9-.1-5.4h3.7v3.2h.3c.8-2.4,2.8-3.2,4.6-3.2s.7,0,1,0v3.7c-.3,0-.7-.1-1.2-.1-2,0-3.4,1.3-3.8,3.2,0,.4-.1.8-.1,1.3v8.6h-4.2v-11.3h-.2Z"/></g><path id="path44-2" class="cls-3" d="M141.3,26.9h4.3v16.7h-4.3s0-16.7,0-16.7Z"/><g id="g46"><path id="path48-2" class="cls-2" d="M171.8,9.3c-2.1-2.4-4.3-1.3-6.1-.4-.7.4-3.4,2.2-6.1,3.4-1.9.9-4.6.6-6.2-1.2,0-.1-2.5-3.1-2.8-3.4-1.6-2-5.6-3.6-10.3-.9-2.6,1.5-8.6,4.9-10.8,6.2-1.4.7-4.5,1-6.3-1.4,0,0-2.4-3-2.5-3.1,0,0-1.6-2.3-5-2.4-.5,0-3,0-5.4,1.4-3.2,1.8-10.7,6.1-10.7,6.1h0c-3.1,1.8-5.5,3.1-5.5,3.1l2.8,3.5c1.3,1.7,4.3,2.9,6.9,1.4l9.6-5.6c4.2-2.3,7.4-2.3,9.5-1.4,1.9.8,3.6,2.8,3.6,2.8,0,0,2.2,2.7,2.6,3.2,1.2,1.5,3.3.9,3.3.9,0,0,.8,0,1.9-.8l9.3-5.4c3-1.7,5.7-2.1,7.1-1.9,4.3.4,5.7,3.4,7.6,5.5,1.1,1.2,2.1,2,3.6,1.9,1,0,2.1-.6,2.3-.7l11.2-6.4s-1.1-1.7-3.5-4.4"/></g></g></g></g></g></svg>