<?xml version="1.0" encoding="UTF-8"?><svg id="Layer_1" xmlns="http://www.w3.org/2000/svg" viewBox="0 0 218 59"><defs><style>.cls-1{fill:#f37022;}.cls-1,.cls-2,.cls-3,.cls-4,.cls-5{stroke-width:0px;}.cls-2{fill:#fa9d1c;}.cls-3{fill:#ffca08;}.cls-4{fill:#636466;}.cls-5{fill:#9e9fa3;}</style></defs><g id="MEGA"><path id="path14" class="cls-4" d="M161.75,22.87c1.05-.57,2.28-.68,3.45-.56,1.08.11,2.16.53,2.97,1.27.93.85,1.46,2.07,1.64,3.31-1.15,0-2.3,0-3.45,0-.15-.56-.44-1.15-1-1.39-.71-.28-1.62-.28-2.2.27-.39.37-.5.93-.56,1.44-.12,1.09-.1,2.19-.08,3.28.03.73.04,1.48.27,2.18.18.55.7.92,1.26.99.66.08,1.42-.05,1.88-.58.41-.48.49-1.14.49-1.75-.69-.02-1.37,0-2.06,0,0-.96,0-1.91,0-2.87,1.82,0,3.64,0,5.46,0-.03,1.65.13,3.34-.36,4.94-.35,1.19-1.25,2.17-2.33,2.75-.7.37-1.49.53-2.27.58h-.91c-.76-.05-1.52-.23-2.19-.59-1.02-.55-1.9-1.43-2.28-2.55-.52-1.47-.4-3.06-.42-4.6,0-1.21,0-2.45.42-3.6.38-1.1,1.25-1.97,2.25-2.53h0Z"/><path id="path16" class="cls-4" d="M81.97,22.54c1.31.04,2.63,0,3.94.02.86.02,1.75-.07,2.59.15.9.21,1.76.72,2.26,1.51.51.79.66,1.78.51,2.7-.18,1.08-.95,2.04-1.98,2.42.72.28,1.37.76,1.76,1.43.57.95.6,2.14.32,3.18-.26.95-.96,1.75-1.86,2.14-.66.3-1.39.41-2.12.41-1.81,0-3.62,0-5.43,0v-13.96M83.47,23.9c0,1.61,0,3.22,0,4.83,1.24,0,2.48,0,3.71,0,.76,0,1.58-.23,2.1-.81.51-.56.63-1.37.52-2.1-.08-.52-.34-1.02-.76-1.34-.52-.41-1.2-.56-1.86-.57-1.24,0-2.48,0-3.71,0M83.47,30.07c0,1.7,0,3.4,0,5.1,1.14,0,2.28,0,3.41,0,.48,0,.96,0,1.42-.14.68-.19,1.29-.68,1.56-1.35.37-.95.25-2.17-.51-2.89-.59-.57-1.45-.74-2.24-.72-1.21,0-2.42,0-3.63,0h0Z"/><path id="path18" class="cls-4" d="M97.61,22.56c.42,0,.84,0,1.26,0,1.7,4.65,3.4,9.29,5.11,13.93-.53.01-1.07,0-1.6,0-.37-1.05-.73-2.1-1.12-3.15-2.03,0-4.05,0-6.08,0-.37,1.05-.74,2.1-1.11,3.15-.53,0-1.06,0-1.59,0,1.71-4.65,3.42-9.3,5.13-13.95M98.24,24.77c-.87,2.43-1.73,4.85-2.59,7.28,1.73,0,3.46,0,5.19,0-.85-2.43-1.7-4.85-2.55-7.28-.01,0-.03,0-.04,0Z"/><path id="path20" class="cls-4" d="M105.44,22.56c.47,0,.94,0,1.42,0,2.46,3.71,4.93,7.42,7.39,11.12,0-3.71,0-7.42,0-11.12.5,0,.99,0,1.49,0,.02,4.65,0,9.3,0,13.95h-1.42c-2.47-3.72-4.93-7.44-7.39-11.16,0,3.72,0,7.44,0,11.16-.5,0-1,0-1.49,0,0-4.65,0-9.3,0-13.94h0Z"/><path id="path22" class="cls-4" d="M118.99,22.57c.5-.02,1,0,1.5,0,0,2.66,0,5.33,0,7.99,2.17-2.66,4.32-5.34,6.5-8,.61,0,1.22,0,1.82,0-1.46,1.8-2.93,3.59-4.39,5.39,1.67,2.85,3.34,5.7,5.01,8.55-.59,0-1.18,0-1.77,0-1.41-2.47-2.83-4.94-4.24-7.41-.94,1.12-1.87,2.24-2.81,3.36-.06.08-.15.15-.13.26,0,1.26,0,2.53,0,3.79-.5,0-1,0-1.49,0,0-4.65,0-9.29,0-13.94h0Z"/><path id="path24" class="cls-4" d="M131.75,36.5c0-4.65-.01-9.3.01-13.94,1.12.02,2.25,0,3.37,0,1.03,2.05,2.08,4.09,3.12,6.13,1.05-2.04,2.08-4.09,3.13-6.14,1.13,0,2.25,0,3.38,0,0,4.65,0,9.29,0,13.94-1.14,0-2.29,0-3.43,0,0-2.32,0-4.63,0-6.95-.65,1.13-1.29,2.26-1.94,3.39-.22.39-.66.64-1.11.64-.45.02-.9-.23-1.13-.62-.66-1.13-1.29-2.27-1.95-3.4,0,2.31,0,4.63,0,6.94-1.14,0-2.29,0-3.43,0h0Z"/><path id="path26" class="cls-4" d="M147.62,22.57c3.16,0,6.32,0,9.48,0,0,1.01,0,2.03,0,3.04-2.02.03-4.04,0-6.05.01,0,.77,0,1.55,0,2.32,1.72,0,3.45,0,5.17,0,0,1.02,0,2.04,0,3.06-1.72,0-3.45,0-5.17,0,0,.81,0,1.63,0,2.44,2.02,0,4.03,0,6.05,0,0,1.02,0,2.04,0,3.06-3.16,0-6.32,0-9.48,0,0-4.65,0-9.29,0-13.94Z"/><path id="path28" class="cls-4" d="M175.6,22.57c.89,0,1.77,0,2.66,0,1.19,3.29,2.39,6.57,3.58,9.86.51,1.36.97,2.73,1.5,4.08h0c-1.18,0-2.37,0-3.55,0-.23-.69-.45-1.38-.68-2.07-1.45,0-2.91,0-4.36,0-.22.69-.45,1.38-.68,2.07-1.18,0-2.35,0-3.53,0,1.69-4.65,3.38-9.29,5.07-13.94M176.92,27.63c-.42,1.34-.85,2.67-1.27,4,.85,0,1.7,0,2.55,0-.43-1.33-.84-2.67-1.28-4Z"/><g id="_ffca08ff"><path id="path3" class="cls-3" d="M43.56,19.5h9.18c-1.53,3.44-3.06,6.88-4.59,10.32-1.44,3.23-2.87,6.45-4.31,9.68-3.06,0-6.13,0-9.19,0,2.97-6.67,5.94-13.33,8.91-20Z"/></g><g id="_fa9d1cff"><path id="path6" class="cls-2" d="M52.75,19.5h0c.96,2.17,1.93,4.33,2.89,6.5v.02c-.65,1.43-1.28,2.88-1.92,4.31-.74,1.66-1.48,3.32-2.22,4.98-.16.33-.28.68-.46,1-.96-2.16-1.93-4.33-2.89-6.49,1.53-3.44,3.06-6.88,4.59-10.32Z"/></g><g id="_9e9fa3ff"><path id="path9" class="cls-5" d="M58.54,19.5h0c1.53,3.44,3.06,6.88,4.6,10.32-.97,2.16-1.93,4.33-2.9,6.5-1.54-3.43-3.06-6.87-4.59-10.3v-.02c.96-2.16,1.93-4.33,2.89-6.5Z"/></g><path id="path12" class="cls-4" d="M58.54,19.5h9.18c2.97,6.66,5.94,13.33,8.91,20-3.06,0-6.13,0-9.19,0-1.44-3.23-2.87-6.45-4.31-9.68-1.53-3.44-3.06-6.88-4.6-10.32Z"/><g id="_f37022ff"><path id="path31" class="cls-1" d="M55.65,26.01c1.53,3.43,3.05,6.87,4.59,10.3-.41.9-1.1,1.68-1.95,2.19-1.25.78-2.85.96-4.25.48-1.31-.43-2.43-1.43-2.99-2.69.18-.32.3-.67.46-1,.74-1.66,1.48-3.32,2.22-4.98.64-1.44,1.27-2.88,1.93-4.31h0Z"/></g></g></svg>