<?xml version="1.0" encoding="UTF-8"?><svg id="Layer_1" xmlns="http://www.w3.org/2000/svg" viewBox="0 0 218 59"><defs><style>.cls-1{fill:#0064ff;}.cls-1,.cls-2{stroke-width:0px;}.cls-2{fill:#030303;}</style></defs><g id="PERMATA"><path id="path2-2" class="cls-2" d="M79.3,25.7h3.8c2.1,0,3.5,1.3,3.5,3s-1.3,3.1-3.5,3.1h-1.9v3.5h-1.9v-9.7.1ZM82.9,30.4c1,0,1.8-.5,1.8-1.6s-.8-1.6-1.8-1.6h-1.7v3.2h1.7Z"/><path id="path4-2" class="cls-2" d="M86.8,31.9c0-2,1.3-3.7,3.5-3.7s3.7,2,3.5,4.2h-5.2c.1,1.2.7,1.9,1.9,1.9s1.3-.4,1.6-1h1.7c-.4,1.5-1.6,2.3-3.3,2.3s-3.6-1.6-3.6-3.7h-.1ZM92.1,31.1c-.2-1-.7-1.6-1.8-1.6s-1.5.6-1.7,1.6h3.5Z"/><path id="path6-2" class="cls-2" d="M94.8,28.4h1.7v1.3c.3-.7,1.1-1.3,2.2-1.3h.1v1.6h-.1c-1.8,0-2.2,1.2-2.2,2.5v2.9h-1.8v-7h.1Z"/><path id="path8-2" class="cls-2" d="M99.5,28.4h1.7v1.1c.4-.8,1.2-1.3,2.1-1.3s1.9.5,2.2,1.3c.5-.8,1.4-1.3,2.3-1.3,1.7,0,2.5,1,2.5,2.7v4.5h-1.8v-4.2c0-1-.4-1.6-1.3-1.6s-1.5.7-1.5,2v3.7h-1.8v-4.2c0-1-.4-1.6-1.3-1.6s-1.5.7-1.5,2v3.7h-1.8v-7l.2.2Z"/><path id="path10-2" class="cls-2" d="M111.3,31.9c0-2.1,1.2-3.7,3.2-3.7s1.8.5,2.3,1.2v-1.1h1.7v7h-1.7v-1c-.5.8-1.2,1.2-2.3,1.2-2,0-3.2-1.5-3.2-3.7v.1ZM114.9,34.1c1.2,0,1.8-.9,1.8-2.3s-.6-2.3-1.8-2.3-1.8.9-1.8,2.3.6,2.3,1.8,2.3Z"/><path id="path12-2" class="cls-2" d="M120.3,29.8h-1.1v-1.4h1.1v-1.9h1.8v1.9h1.4v1.4h-1.4v5.6h-1.8s0-5.6,0-5.6Z"/><path id="path14-2" class="cls-2" d="M123.9,31.9c0-2.1,1.2-3.7,3.2-3.7s1.8.5,2.3,1.2v-1.1h1.7v7h-1.7v-1c-.5.8-1.2,1.2-2.3,1.2-2,0-3.2-1.5-3.2-3.7v.1ZM127.4,34.1c1.2,0,1.8-.9,1.8-2.3s-.6-2.3-1.8-2.3-1.8.9-1.8,2.3.6,2.3,1.8,2.3Z"/><path id="path16-2" class="cls-2" d="M134.5,25.7h4c1.8,0,3,1,3,2.4s-.5,1.7-1.4,2.1c1.1.3,1.9,1.2,1.9,2.4s-1.2,2.8-3.2,2.8h-4.3v-9.7h0ZM138.2,29.7c.8,0,1.5-.4,1.5-1.3s-.7-1.3-1.5-1.3h-1.8v2.6h1.8ZM138.5,34c.9,0,1.6-.4,1.6-1.5s-.7-1.5-1.7-1.5h-2.1v2.9h2.1l.1.1Z"/><path id="path18-2" class="cls-2" d="M142.6,31.9c0-2.1,1.2-3.7,3.2-3.7s1.8.5,2.3,1.2v-1.1h1.7v7h-1.7v-1c-.5.8-1.2,1.2-2.3,1.2-2,0-3.2-1.5-3.2-3.7h0v.1ZM146.2,34.1c1.2,0,1.8-.9,1.8-2.3s-.6-2.3-1.8-2.3-1.8.9-1.8,2.3.6,2.3,1.8,2.3Z"/><path id="path20-3" class="cls-2" d="M151,28.4h1.7v1.1c.4-.8,1.3-1.3,2.2-1.3,1.7,0,2.6,1,2.6,2.7v4.5h-1.8v-4.2c0-1-.4-1.6-1.4-1.6s-1.6.7-1.6,2v3.7h-1.8v-7l.1.1Z"/><path id="path22-3" class="cls-2" d="M160.6,32v3.4h-1.8v-9.7h1.8v5.6l2.6-2.9h2.1l-2.9,3.2,3.3,3.8h-2.2l-2.9-3.4h0Z"/><path id="path24-4" class="cls-1" d="M71.8,27.2l-8.7-11.2-8.7,11.2c-1.5,1.9-2,3.5-2,5.3,0,2.7,1.4,5.2,3.9,6.9l6.8,4.6,6.8-4.6c2.5-1.7,3.9-4.2,3.9-6.9,0-1.8-.6-3.4-2-5.3ZM61.7,38.9v1.6l-4.2-2.8c-2-1.3-3.1-3.2-3.1-5.2s.3-2,.8-2.9c.2.6.6,1.2,1.4,2.1l4.4,4.8c.7.8.7,1.3.7,2.3v.1ZM58.4,30.7c-1.1-1.2-1.3-1.9-1.3-2.6s.1-1.3,1-2.3l5-6.4,5,6.4c.8,1.1,1,1.7,1,2.3s-.2,1.4-1.3,2.6l-4.7,5.1s-4.7-5.1-4.7-5.1ZM68.7,37.8l-4.2,2.8v-1.6c0-1.1,0-1.5.7-2.3l4.4-4.8c.8-.9,1.1-1.5,1.4-2.1.5.9.8,1.9.8,2.9,0,2-1.1,3.9-3.1,5.2v-.1Z"/></g></svg>