<?xml version="1.0" encoding="UTF-8"?>
<svg id="Layer_1" xmlns="http://www.w3.org/2000/svg" viewBox="0 0 218 59">
    <defs>
        <style>.cls-1{fill:#3E4C5C;stroke-width:0px;}</style>
    </defs>
    <g id="BJB">
        <g id="g4319">
            <path id="path4321" class="cls-1"
                d="M51.6,16.4h2.7v9.5h0c1-1.7,2.7-2.8,5.2-2.8,3.8,0,6.4,3.1,6.4,7.7,0,5.4-3.4,8.1-6.8,8.1s-4-.8-5.1-2.9h0v2.5h-2.5c0-1,.1-2.6.1-3.9v-18.3.1ZM54.3,32.6h0c0,.3,0,.7.1,1,.5,1.9,2.1,3.2,4.1,3.2,2.9,0,4.6-2.4,4.6-5.8s-1.6-5.6-4.5-5.6-3.6,1.3-4.2,3.4c0,.3-.2.7-.2,1.1v2.7h.1Z" />
        </g>
        <g id="g4323">
            <path id="path4325" class="cls-1"
                d="M79.7,35c0,1.3,0,2.6.3,3.6h-2.5l-.2-1.9h0c-.8,1.2-2.5,2.3-4.6,2.3-3.1,0-4.6-2.2-4.6-4.4,0-3.7,3.3-5.7,9.1-5.6v-.3c0-1.3-.3-3.5-3.4-3.5s-2.9.4-4,1.1l-.6-1.8c1.3-.8,3.1-1.3,5-1.3,4.6,0,5.8,3.2,5.8,6.2v5.7l-.3-.1ZM77.1,30.9h0c-3,0-6.4.5-6.4,3.4s1.2,2.6,2.6,2.6,3.2-1.3,3.7-2.5c0-.3.2-.6.2-.9v-2.6h-.1Z" />
        </g>
        <g id="g4327">
            <path id="path4329" class="cls-1"
                d="M84,27.6c0-1.6,0-2.9-.1-4.1h2.4l.2,2.5h0c.8-1.4,2.5-2.9,5-2.9s5.4,1.3,5.4,6.5v9.1h-2.8v-8.7c0-2.4-.9-4.5-3.5-4.5s-3.2,1.3-3.7,2.8c-.1.3-.2.8-.2,1.3v9.1h-2.8v-11.1h.1Z" />
        </g>
        <g id="g4331">
            <path id="path4333" class="cls-1"
                d="M103.7,30.4h0c.4-.5.9-1.2,1.4-1.7l4.5-5.2h3.3l-5.9,6.2,6.7,8.9h-3.4l-5.2-7.3-1.4,1.6v5.7h-2.7v-22.3h2.7v14.1Z" />
        </g>
        <g id="g4335">
            <path id="path4337" class="cls-1"
                d="M136.4,24c-.1-.1-.2-.2-.3-.4-.2-.2-.4-.4-.6-.5-1.1-.9-2.5-1.5-4-1.5s-3.1.6-4.3,1.7h-.3c-.2,0-.4-.3-.4-.6v-6.2c0-.4-.3-.7-.7-.7h-3c-.4,0-.7.3-.7.7v.2h0v20.7c0,.4.3.7.7.7h2.7c.2,0,.3,0,.5-.2h0s.1-.1.1-.2h0v-.3c0-.4.4-.7.5-.6h.2s.1,0,.2.1c.2.1,1,.7,1.6,1,.3.1,1.3.5,2.5.5s2-.3,2.2-.3.4-.1.6-.2c.9-.4,1.7-.9,2.2-1.6.6-.7,1-1.5,1.4-2.4.6-1.2.9-2.6.9-4.1,0-2.4-.8-4.6-2.2-6.1M130.2,35.6h0c-2.2,0-4-2.4-4-5.3s1.8-5.3,4-5.3,4,2.4,4,5.3-1.8,5.3-4,5.3" />
        </g>
        <g id="g4339">
            <path id="path4341" class="cls-1"
                d="M146.5,23.4v-.6c0-.4-.3-.7-.7-.7h-3c-.4,0-.7.3-.7.7v16.4c0,.4-.5,1-1.1,1.1-.3,0-.5.1-.8.1s-.5.1-.6.3v2.9c.1.2.3.3.7.4.1,0,2.1,0,3.5-.3.5-.1,1-.4,1.3-.7.4-.3.7-.6.9-1,.3-.5.5-1.1.5-1.9v-16.6" />
        </g>
        <g id="g4343">
            <path id="path4345" class="cls-1"
                d="M164.3,24c-.1-.1-.2-.2-.3-.4-.2-.2-.4-.4-.6-.5-1.1-.9-2.5-1.5-4-1.5s-3.1.6-4.3,1.7h-.3c-.2,0-.4-.3-.4-.6v-6.2c0-.4-.3-.7-.7-.7h-3c-.4,0-.7.3-.7.7v.2h0v20.7c0,.4.3.7.7.7h2.7c.2,0,.3,0,.5-.2h0s.1-.1.1-.2h0v-.3c0-.4.4-.7.5-.6h.2s.1,0,.2.1c.2.1,1,.7,1.6,1,.3.1,1.3.5,2.5.5s2-.3,2.2-.3.4-.1.6-.2c.9-.4,1.7-.9,2.2-1.6.6-.7,1-1.5,1.4-2.4.6-1.2.9-2.6.9-4.1,0-2.4-.8-4.6-2.2-6.1M158.1,35.6h0c-2.2,0-4-2.4-4-5.3s1.8-5.3,4-5.3,4,2.4,4,5.3-1.8,5.3-4,5.3" />
        </g>
        <g id="g4347">
            <path id="path4349" class="cls-1"
                d="M144.1,16.2c-.4,0-.8.1-1.1.3-.3.2-.6.5-.7.8-.2.3-.3.7-.3,1.1s0,.7.3,1.1c.2.3.4.6.7.8.3.2.7.3,1.1.3.5,0,.9-.1,1.2-.3.3-.2.6-.5.7-.8.2-.3.3-.7.3-1.1s0-.8-.3-1.1c-.2-.3-.4-.6-.7-.8-.3-.2-.7-.3-1.1-.3" />
        </g>
    </g>
</svg>