<?xml version="1.0" encoding="UTF-8"?>
<svg id="Layer_1" xmlns="http://www.w3.org/2000/svg" viewBox="0 0 218 59">
    <defs>
        <style>.cls-1{fill:#7E7E7E;}.cls-1,.cls-2{stroke-width:0px;}.cls-2{fill:#3E4C5C;}</style>
    </defs>
    <g id="BTN">
        <path class="cls-2"
            d="M93.89,25.28c-1.96,0-3.76.66-5.23,1.78v-8.02h-4.62v24.59h4.62v-1.42c1.47,1.12,3.28,1.78,5.23,1.78,4.92,0,8.92-4.19,8.92-9.36s-3.99-9.36-8.92-9.36ZM93.45,39.43c-2.65,0-4.79-2.15-4.79-4.79s2.15-4.79,4.79-4.79,4.79,2.14,4.79,4.79-2.14,4.79-4.79,4.79Z" />
        <path class="cls-2"
            d="M133.97,32.05v11.59h-4.62v-11.09c0-.53-.16-1.05-.45-1.49-.52-.77-1.42-1.16-2.32-1.23-.8-.07-1.69.08-2.39.48-.23.13-.45.3-.64.48-.62.6-1,1.44-1,2.31v10.53h-4.62v-17.9h4.62v.96c0-.28,1.26-.81,1.49-.91.59-.25,1.21-.4,1.85-.47,4.15-.46,8.09,2.34,8.09,6.73h0Z" />
        <path class="cls-2"
            d="M115.78,30.24v-4.5h-5.22v-4.86h-1.53l-3.1,2.16v3.16l-3.13,2.44v1.6h3.13v6.97c0,.65.07,1.3.23,1.93,1,3.91,4.51,4.86,6.48,4.86,2.18,0,3.14-.7,3.14-.7v-4.4s-.81.64-2.87.64c-.83,0-1.37-.28-1.72-.62-.41-.4-.63-.96-.63-1.53v-7.15h5.22Z" />
        <path class="cls-1"
            d="M132.99,16.05l-14.45,5.5c-.38.15-.64.51-.64.93v.97c0,.17.15.3.32.27l13.52-2.43c1.29-.23,2.22-1.35,2.22-2.66v-1.9c0-.5-.51-.85-.98-.67h0Z" />
    </g>
</svg>