<?xml version="1.0" encoding="UTF-8"?>
<svg id="Layer_1" xmlns="http://www.w3.org/2000/svg" viewBox="0 0 218 59">
    <defs>
        <style>.cls-1{fill:#3E4C5C;}.cls-1,.cls-2{stroke-width:0px;}.cls-2{fill:#3E4C5C;}</style>
    </defs>
    <g id="PERMATA">
        <path id="path2" class="cls-2"
            d="M64,22.5h5.8c3.2,0,5.3,2,5.3,4.6s-2,4.7-5.3,4.7h-2.9v5.4h-2.9v-14.7ZM69.5,29.6c1.5,0,2.7-.8,2.7-2.5s-1.2-2.5-2.7-2.5h-2.6v4.9h2.6v.1Z" />
        <path id="path4" class="cls-2"
            d="M75.4,31.9c0-3.1,2-5.6,5.3-5.6s5.7,3.1,5.2,6.3h-7.9c.2,1.8,1.1,2.8,2.8,2.8s2-.6,2.4-1.4h2.6c-.6,2.3-2.4,3.5-5,3.5s-5.4-2.5-5.4-5.6h0ZM83.4,30.7c-.2-1.4-1.1-2.4-2.7-2.4s-2.3.9-2.6,2.4c0,0,5.3,0,5.3,0Z" />
        <path id="path6" class="cls-2"
            d="M87.4,26.6h2.6v1.9c.5-1.1,1.7-2,3.4-2h.2v2.4h-.2c-2.7,0-3.3,1.8-3.3,3.8v4.4h-2.7v-10.6.1Z" />
        <path id="path8" class="cls-2"
            d="M94.7,26.6h2.6v1.7c.6-1.2,1.8-1.9,3.2-1.9s2.8.7,3.4,2c.7-1.2,2.1-2,3.5-2,2.5,0,3.8,1.5,3.8,4.1v6.8h-2.7v-6.3c0-1.5-.6-2.4-1.9-2.4s-2.3,1.1-2.3,3.1v5.7h-2.7v-6.3c0-1.5-.6-2.4-1.9-2.4s-2.3,1.1-2.3,3.1v5.7h-2.7v-10.9Z" />
        <path id="path10" class="cls-2"
            d="M112.6,31.9c0-3.2,1.8-5.6,4.8-5.6s2.7.7,3.4,1.9v-1.6h2.6v10.6h-2.6v-1.6c-.7,1.2-1.9,1.9-3.4,1.9-3,0-4.8-2.3-4.8-5.6ZM118,35.3c1.8,0,2.7-1.4,2.7-3.4s-1-3.4-2.7-3.4-2.7,1.4-2.7,3.4,1,3.4,2.7,3.4Z" />
        <path id="path12" class="cls-2"
            d="M126.2,28.7h-1.6v-2.1h1.6v-2.8h2.7v2.8h2.2v2.1h-2.2v8.5h-2.7v-8.5Z" />
        <path id="path14" class="cls-2"
            d="M131.5,31.9c0-3.2,1.8-5.6,4.8-5.6s2.7.7,3.4,1.9v-1.6h2.6v10.6h-2.6v-1.6c-.7,1.2-1.9,1.9-3.4,1.9-3,0-4.8-2.3-4.8-5.6ZM137,35.3c1.8,0,2.7-1.4,2.7-3.4s-1-3.4-2.7-3.4-2.7,1.4-2.7,3.4,1,3.4,2.7,3.4Z" />
        <path id="path16" class="cls-2"
            d="M147.7,22.5h6c2.7,0,4.5,1.6,4.5,3.7s-.8,2.6-2.1,3.1c1.7.5,2.9,1.8,2.9,3.6s-1.8,4.2-4.9,4.2h-6.5v-14.7h0l.1.1ZM153.3,28.6c1.3,0,2.2-.7,2.2-2s-1-1.9-2.2-1.9h-2.7v4h2.8l-.1-.1ZM153.7,35.1c1.3,0,2.5-.7,2.5-2.2s-1.1-2.2-2.6-2.2h-3.1v4.5h3.2v-.1Z" />
        <path id="path18" class="cls-2"
            d="M160,31.9c0-3.2,1.8-5.6,4.8-5.6s2.7.7,3.4,1.9v-1.6h2.6v10.6h-2.6v-1.6c-.7,1.2-1.9,1.9-3.4,1.9-3,0-4.8-2.3-4.8-5.6h0ZM165.4,35.3c1.8,0,2.7-1.4,2.7-3.4s-1-3.4-2.7-3.4-2.7,1.4-2.7,3.4,1,3.4,2.7,3.4Z" />
        <path id="path20-2" class="cls-2"
            d="M172.8,26.6h2.6v1.7c.6-1.3,1.9-1.9,3.3-1.9,2.5,0,3.9,1.5,3.9,4.1v6.8h-2.7v-6.3c0-1.5-.6-2.4-2.1-2.4s-2.4,1.1-2.4,3.1v5.7h-2.7v-10.6l.1-.2Z" />
        <path id="path22-2" class="cls-2"
            d="M187.2,32v5.2h-2.7v-14.7h2.7v8.4l3.9-4.4h3.2l-4.4,4.8,5,5.8h-3.3l-4.4-5.2v.1Z" />
        <path id="path24-3" class="cls-1"
            d="M56.5,27.2l-8.7-11.2-8.7,11.2c-1.5,1.9-2,3.5-2,5.3,0,2.7,1.4,5.2,3.9,6.9l6.8,4.6,6.8-4.6c2.5-1.7,3.9-4.2,3.9-6.9,0-1.8-.6-3.4-2-5.3ZM46.4,38.9v1.6l-4.2-2.8c-2-1.3-3.1-3.2-3.1-5.2s.3-2,.8-2.9c.2.6.6,1.2,1.4,2.1l4.4,4.8c.7.8.7,1.3.7,2.3v.1ZM43.1,30.7c-1.1-1.2-1.3-1.9-1.3-2.6s.1-1.3,1-2.3l5-6.4,5,6.4c.8,1.1,1,1.7,1,2.3s-.2,1.4-1.3,2.6l-4.7,5.1s-4.7-5.1-4.7-5.1ZM53.4,37.8l-4.2,2.8v-1.6c0-1.1,0-1.5.7-2.3l4.4-4.8c.8-.9,1.1-1.5,1.4-2.1.5.9.8,1.9.8,2.9,0,2-1.1,3.9-3.1,5.2v-.1Z" />
    </g>
</svg>